<?xml version="1.0" encoding="utf-8"?>
<!-- Generator: Adobe Illustrator 21.0.0, SVG Export Plug-In . SVG Version: 6.00 Build 0)  -->
<svg version="1.1" xmlns="http://www.w3.org/2000/svg" xmlns:xlink="http://www.w3.org/1999/xlink" x="0px" y="0px"
	 viewBox="0 0 1400 1400" style="enable-background:new 0 0 1400 1400;" xml:space="preserve">
<style type="text/css">
	.st0{fill:#990E1F;}
	.st1{fill:#FF063C;}
	.st2{fill:#FFFFFF;}
</style>
<g id="background">
</g>
<g id="object">
	<g>
		<path class="st0" d="M1003.7,1194.5c33.4-3.9,51.5-20.8,52.3-21.5l1.7-1.6l-0.5-2.3c-6.9-30.6-42.8-64.4-53.6-74l-1.2-1.1l0-1.6
			c0-6.5-0.9-23.2-10.9-36.6c-3-4-7.1-7.1-12.1-9l-1.9-0.8l-10.7-77.6l0.9-1.2c10.5-13.5,7.2-28.4,5.2-37.3l-0.3-1.4
			c-0.9-3.9-2.2-6.6-3.5-9.2c-2.9-5.9-5.6-11.4-2.9-33.2c1.9-15.6,19.5-68.5,28.6-94.4l0.2-0.6l5.7-6.7l0.3-0.6
			c1.7-3.9,41.1-96.1,20.7-135.2c-9-17.3-16-26.5-19.3-30.5l-0.7-0.8l-0.1-1.1c-3.5-30.3-12.3-59.7-26.3-87.5
			c-19.2-38.1-80.9-104.2-99.4-123.5l-3.5-3.7l4.7-2c30.3-13,66.2-37.2,70.2-39.9l13.1-8.9l-103.2,8.3l19.5-8.5
			c9.2-4,17.4-7.8,24.4-11.4c19.2-9.9,25-27.5,24-40.7c-0.9-12.3-7.4-22.2-16.5-25.3c-36.5-12.3-64.5-17.6-89.1-22.3
			c-9-1.7-23.8-5.2-33.6-7.6l-4.5-1.1c-22.9-5.4-49.5-24.6-61-33.6c0.3,15,2.7,49.2,17.9,60.2c11.5,8.4,51.4,20.5,91.3,32.3l9.4,2.8
			l-20.6,8.9l-14-1.8c-2.8,0-4.3,0.6-15.4,5.3c-1.4,0.6-4.4,2.9-6.8,4.7c-3.7,2.8-6,4.5-7.9,5.3c-3.8,1.5-12.9,3.6-19.8,5.1l-4.3,1
			v-0.6c-13.2,0.6-26-3.2-35.5-6c-9.9-2.9-14.4-4.1-17.7-1.4c-0.6,0.5-1.9,1.8-4,5.3l-1.3,2l-2.3-0.4c-9.2-1.6-55.8-9.9-73.9-17.4
			c-19.2-8-45.4-48.1-45.6-48.5l-8.4-12.9l0.6,15.3c0.7,17.5,6.3,54.7,22.5,70.4c15.9,15.4,59.1,27.3,77,31.7l4.4,1.1l-9.3,17.8
			l2.6,17.9L631.3,444l-14.5-0.5l-15.3,9.7l3.6,34.6l-9.6,14.4l16.2,22.9l4.7,0.2l4.1,26.3l64.4,4.7l7.5-8l0.8-0.3
			c3.5-1.3,7.7-2.7,12.5-4.3l22.8-7.5L708.7,550c-10.6,7.4-26,21.3-38.9,45l-0.4,0.7l-0.7,0.5c-21.6,15.3-86.1,61.9-99.4,75.2
			c-1.3,1.3-2.8,3.2-4.4,5.7l-0.5,0.8l-0.9,0.4c-9.9,5-65.1,33.9-87.8,51.6l-1.7,1.3l-3.4-1.6c-16.5-7.8-47.2-22.4-47.7-44.7
			c-0.3-11.5,3.8-17.1,22.8-31.5c12.9-9.8,17.1-21.5,19.2-29.4l0.5-1.8l1.8-0.6c4.8-1.7,8.7-5.6,10.8-11.2
			c2.6-6.7,2.2-14.6-1.1-20.5l-1.2-2.1c-3-5.4-5.8-10.6-10.4-14.3c-4.2-3.4-9.3-6.1-14.9-7.9c-18-5.8-31.2,8.8-37.5,18.3
			c2.9-0.1,6.2,0.5,9.1,3c6.3,5.3,4.6,17.5,4.5,18c-0.2,1.2-0.4,2.5-0.7,3.7c-1.6,8.4-3,15.6,9,22.8l4.2,2.5l-3.7,3.2
			c-3.3,2.8-6.4,5.1-9.1,6.7c-2,1.1-3.7,2-5.4,2.9c-3.6,1.8-6.7,3.4-11.6,7.3c-19.7,16.2-25,32.4-17.1,52.4
			c6.8,17.4,40.1,48.1,51.2,57.5l2.2,1.9l-1.5,2.6c-5.2,9-9.9,19-14.1,29.9c-5,12.8-13.8,64.1-20.4,107.9l-0.2,1.4l-20.8,16.2
			l-17.9,76.6l-12.5,13.8l-4.9,26.1l5.7,5.9l-1,2.2c-10.1,22.6-16,41-15.8,49c0.1,2.7,1.1,6.7,5.3,10.4c8.7,7.6,26.5,10.3,39.1,10.3
			c2.7,0,5.2-0.1,7.5-0.4c17.8-1.8,26-11.5,26.9-12.6l1.1-1.4l-0.3-1.8c0-0.2-2.6-17.3-10.2-33.1l-2.4-5.1h3.5l13.3-25.7l-4.6-12.9
			l20.4-61.4l1.5-0.6c51.1-20.8,86.6-38.7,92.5-46.8c2-2.8,5.3-8.7,9.8-17.6l0.8-1.5l1.7-0.3c1.9-0.4,4.1-0.8,6.6-1.3l5.3-1l-9.2,40
			l-10.5,12.9v29.5l16.9,11.2L602,1043v18.2l14.6,12.2l5.1-0.7l1.2,1.9c5.8,9.2,9.6,26.6,10.8,34.5l0.5,3.6l3.6,0
			c0.6,0,57.2-0.1,81.4-1.8l7.6-0.5l-4.5-6.1c-2.4-3.3-24.4-32.7-42.7-44.3l-1.6-1l0-1.9c0-9.5-1.9-13.2-3-14.5
			c-2.5-3-14.3-8.3-23.7-12.2l-1.2-0.5L621.8,975l13.1,10.5c19.5,15.6,37.1,28.1,41.8,31.2l0.4,0.3c0.1,0.1,0.3,0.2,0.4,0.3
			c6.1,4.5,15.9,2.4,19.8,1.3l0.6-0.2l50.5,3.1l0.8,0.6c5.1,3.8,10.6,6.5,16.2,8.3c3.5,1.1,7.5,1.6,11.8,1.6
			c20.2,0,42.6-11.5,47-16.6c4.9-5.6,9.7-25.8,9.1-38.5c-0.3-6.9-5.7-19.4-15.1-35.3l-3.1-5.3l6.1-0.1c23.5-0.2,43.4-6.8,59.3-19.7
			l5.6-4.5l0.1,7.2c0.2,7.9-0.3,15.4-1.4,22.3c-3.7,23,4.9,34.3,13.7,42.3l1,0.9l7.5,78l-7,16.7l7.2,24.6l3.7,28.7l2.6,0.8
			c8.4,2.5,16.9,27.7,20.3,44.9l0.3,1.4l1.1,0.9c0.7,0.6,17.3,14.6,52.3,14.6C992.7,1195.5,998.1,1195.1,1003.7,1194.5z
			 M721.5,949.2l-1.3-1.5c-2.5-3.5-8-9.7-17.8-11.4l-1-0.3c-2.2-1.1-4.7-2.8-7.5-5.2l-12.2-10.2l15.4,4.1c9.8,2.6,18.1,4.3,24.8,5
			l2.7,0.3l2.8,19.2H721.5z"/>
		<path class="st1" d="M921.6,1129c0,0,24.7,14.1,30,28.3c5.3,14.1,32.7,29.1,32.7,29.1s-34.4,3.5-44.2-7.1
			C930.4,1168.7,921.6,1129,921.6,1129z"/>
		<polygon class="st2" points="803,322.7 797.7,345.7 870.1,310.9 849.5,304.2 		"/>
		<path class="st2" d="M730.8,419l38-32.7h7.1l-3.1,16.3c0,0-5.3,22.3-17.7,22C742.8,424.3,730.8,419,730.8,419z"/>
		<path class="st1" d="M364.3,1051.9c0,0-0.3,20.9-1.2,30.9c-0.9,10,4.4,16.8,5.3,16.8c0.9,0,2.6,7.1,2.6,7.1s-23.5,4.4-24.7-6.2
			C345.2,1089.8,364.3,1051.9,364.3,1051.9z"/>
		<path class="st1" d="M619.9,959.7c0,0,20.6-15.3,21.5-15.6c0.9-0.3,15,14.7,20.3,15.6c5.3,0.9,14.5-7.8,14.5-7.8s3.3-4.6,0-5.4
			c-3.3-0.9-31-21.2-31-21.2S616,944.7,619.9,959.7z"/>
		<path class="st1" d="M475.8,729.8l-1.7,1.3l-3.4-1.6c-16.5-7.8-47.2-22.4-47.7-44.7c0-0.8,0-1.6,0-2.4c-5.6-3.9-8.4-8.6-5.9-14.1
			c10.6-23,32.4-29.4,42.4-50.6c10-21.2,1.5-32.4,1.5-32.4s14.3,9.3,17,24.9c2.6-6.7,2.2-14.6-1.1-20.5l-1.2-2.1
			c-3-5.4-5.8-10.6-10.4-14.3c-4.2-3.4-9.3-6.1-14.9-7.9c-11.7-3.7-21.4,1.1-28.4,7.6c-1.9,2.9-3.7,6-5.4,9.6c0,0,12.7-8.5,24.1-2.1
			c11.5,6.5,15.3,23.8,13.8,28.6l-4.1-7.1c0,0,0.6,10.4-3.8,16.4c-2.4,3.2-4.4,8.4-9.4,14.2l-1.9,4.3c-3.3,2.8-6.4,5.1-9.1,6.7
			c-2,1.1-3.7,2-5.4,2.9c-3.6,1.8-6.7,3.4-11.6,7.3c-5,4.1-9,8.2-12.2,12.3c2.4,1.7,5.6,3.3,7.9,1.9c4.1-2.6-7.4,10.9,7.7,35.6
			c15,24.7,46.2,44.2,46.2,44.2l22.1-15l1.7-7.8C480,726.7,477.7,728.3,475.8,729.8z"/>
		<path class="st2" d="M599.5,338c0,0-1.2-7.1,2.4-6.2c3.5,0.9,10.6,4.9,14.4,3.1c3.8-1.9,49.2,7.3,63.9,4.6
			c0,0-59.8-16.2-73.9-25.6c-14.1-9.4-35.9-37.7-35.9-37.7S564.2,314.2,599.5,338z"/>
		<path class="st2" d="M747,261.9c0,0-1.5-7.2,0-8.1c1.5-0.9,7.1,3.5,12.4,1.8s-2.1-4.7,10.6-1.9c12.7,2.8,74.5,18.4,95.1,19.3
			c20.6,0.9,20.6,0.9,20.6,0.9s-121.1-29.7-139.3-42.4c-18.2-12.7-20.8-15-20.8-15S712.9,244.9,747,261.9z"/>
		<path class="st1" d="M775.9,951.8c-4.1-5.3-15.9-12.4-15.9-12.4l-4.1-50l-5.3-4l14.1-13l-3.5-37.1h-16.5l16.5-8.8l-5.3-15.3
			l-27.7,13c-6.4,3-29.6,21.3-29.6,21.3l26.5,75.1l-3.6,9.3c0.1,0,0.3,0,0.4,0.1l2.7,0.3l2.8,19.2h-5.9l-1.3-1.5
			c-1.9-2.8-5.8-7.1-12.1-9.7l-17.2,2.7c0,0-9.3,0.7-12.8,4.9c-3.5,4.2-5.7,46.6-5.1,46.6s5.7-13.9,11.3-12.4c5.5,1.5,13-2.4,13-2.4
			l-2.6,18.5l5.4-8.4c0,0,8.5-1.5,18.7-0.7c10.2,0.9,7.9,7.5,9.5,7.5c1.5,0,14.4-9.7,14.4-9.7l0.7-10.8c0,0,4.6,15,7.1,17
			c2.4,2,9.7-5.4,17.4-13.1C775.3,970,780,957.1,775.9,951.8z"/>
		<path class="st1" d="M757.8,667.6c0-7.9,5.5-29.1,5.5-29.1v19.9c3.3-8.8,12.6-34,12.6-34l-25.2-38.9L724,539.3L708.7,550
			c-10.6,7.4-26,21.3-38.9,45l-0.4,0.7l-0.7,0.5c-21.6,15.3-86.1,61.9-99.4,75.2c-1.3,1.3-2.8,3.2-4.4,5.7l-0.5,0.8l-0.9,0.4
			c-9.9,5-65.1,33.9-87.8,51.6l-0.9,0.7L456.2,755L443,769.7c-4.8,8.6-9.3,18.1-13.2,28.3c-5,12.8-13.8,64.1-20.4,107.9l-0.2,1.4
			l-20.8,16.2l-17.9,76.6l-12.5,13.8l-4.7,25c10.8,2.7,18.8,4.5,19.5,4.4c2.2-0.5,0.5-14.5,0.5-14.5l8.4-17.2l9.3-11.9l-4.9,4
			l15.5-50.8l-2.2-8.8l8.8-9.3c0,0,35.3-20.3,35.8-24.7c0.4-4.4,22.1-56.1,38.4-62.7c16.3-6.6,35.3-9.7,54.3-21.2
			c13.8-8.3,20.9-9.6,26.3-19.1l0,0l38.2-73l-17.8,61.6c20.8-2.9,56.2-3.6,57.6-10.5c1.8-8.8,20.3-34.4,20.3-34.4
			c-5.7,41.9,5.3,86.1,5.3,86.1c1.8-19,24.7-50.3,44.6-60.5c19.9-10.2,52.5-5.7,52.5-5.7s-2.2-15.9-12.8-30.9
			c-10.6-15-54.3-95.9-54.3-95.9c15.5,9.7,72.4,58.2,72.4,58.2S757.8,675.5,757.8,667.6z"/>
		<path class="st1" d="M767.3,360.9h23.2l-17.9-8.6l17.9-4.4l3.3-20.8l-19.9,2.4l-12.5-0.1c-2.4,0.6-4.9,1.1-7.1,1.6l-4.3,1v-0.6
			c-7.5,0.3-14.8-0.8-21.6-2.3l-28.6-0.3l-11.6,18.5l0.2,8.4l5.1,2h11.7l17.7-5.5l-19.3,9.7c0,0-18.5-3.9-26-1.7
			c-7.5,2.2-6.8,10.2-6.8,10.2l-7.3,13.5l-0.9,13.9l10.2-0.7l21.2-24.3l-11.5,19.1c0,0-33.3,39.8-44.6,43.2l-6.6,8.9l-14.5-0.5
			l-15.3,9.7l3.6,34.6l-9.6,14.4l14,19.8l47.2-2.8l-37.1-11.3l1.5-5.9l-4.4-5.1l3.3-1.1l1.5-7.3l13,3.8c0,0-4.4-4.4-3.3-7.3
			c1.1-2.9,5.4-5.5,5.4-5.5s14.2-7,18.9-6.5c4.6,0.5,9.1-0.6,13.7-3.7c4.6-3.1,16.8-5.3,17.9-7.3c1.1-2,7.9-2.9,9.5-2.4
			c1.5,0.4-2.4-6.2-2.4-6.2l-5.7-4l24.7-28.3l-5.1-7.5l4-1.5l9.7-1.5l29.1-38.6L767.3,360.9z"/>
		<g>
			<path d="M1060.6,1168.3c-7.1-31.8-43.9-66.4-54.7-75.9c0.1-7.9-1.2-24.8-11.6-38.7c-3.7-5-8.5-8.2-13.6-10.2l-10.2-74.1
				c11.5-14.8,7.9-31.1,5.8-40.2l-0.3-1.4c-0.9-4.3-2.4-7.4-3.8-10c-2.6-5.4-5.2-10.4-2.6-31.2c2-15.9,20.7-71.7,28.4-93.6
				c2.7-3.2,4.5-5.3,4.9-5.8l0.7-0.9l0.5-1.1c1.7-4,41.8-97.7,20.5-138.3c-9.3-17.8-16.5-27.3-19.7-31.1
				c-3.1-27.3-10.9-57.5-26.6-88.7c-19.1-37.9-78.3-101.6-100-124.4c30.3-13,65.6-36.7,70.8-40.3l24.2-16.5l-95.4,7.7
				c8.3-3.6,16.8-7.5,24.6-11.5c20.7-10.7,26.9-29.8,25.9-44.1c-1-13.7-8.5-24.9-18.9-28.4c-36.7-12.4-64.8-17.7-89.6-22.5
				c-10.4-2-28.5-6.4-37.9-8.6c-29.2-6.9-65.3-37.6-65.3-37.6s-2.1,54.9,19.4,70.5c11.7,8.5,48.5,19.9,92.4,32.8l-10.7,4.6
				l-13.3-1.7c-3.7,0-5.5,0.7-17,5.6c-3.6,1.5-11.5,8.7-14.6,9.9c-3,1.2-10.4,3-19.3,5l0,0c-13.9,1.5-27.9-2.6-38.1-5.6
				c-10-2.9-16-4.7-20.8-0.8c-1.4,1.1-3.1,3.4-4.8,6.2c-8.8-1.5-55.4-9.8-73.2-17.2c-15.1-6.3-36.9-36.2-44-47.2l-15.4-23.7
				l1.2,28.2c0.1,2.1,2.4,52.2,23.5,72.8c16.4,15.9,59.3,27.9,78.6,32.6l-7.7,14.9l2.6,17.6l-25.7,35.1l-13.7-0.4l-18.1,11.4
				l3.7,35.6l-10.2,15.4l18.6,26.3l3.5,0.2l4.1,26.2l68.9,5l8.1-8.7c3.4-1.2,7.6-2.7,12.4-4.3c-11.4,8-26.9,22.2-40,46.2
				c-23,16.3-86.6,62.3-99.8,75.5c-1.6,1.6-3.2,3.7-4.8,6.3c-10.4,5.2-65.5,34.1-88.4,51.9c-15.7-7.4-46.7-21.5-47.2-42.3
				c-0.2-9.5,2-13.9,21.4-28.6c13.4-10.2,18.2-22.5,20.5-31.3c13.7-4.7,18.7-23.9,11.6-36.7c-3.5-6.3-6.6-12.8-12.5-17.5
				c-4.5-3.6-9.9-6.5-16.1-8.5c-29.1-9.3-46,27.5-46,27.5s8.4-5.1,14.3-0.2c3.9,3.3,3.8,11.4,3.3,14.8c-1.4,9.2-6.1,20.4,10,30.1
				c-3,2.5-6,4.8-8.6,6.3c-6.1,3.5-10,4.4-17.5,10.5c-18.9,15.5-27.3,33.1-18.2,56.5c7.3,18.5,41.2,49.6,52.2,58.9
				c-5.2,9.1-10,19.2-14.3,30.4c-6.5,16.8-17.9,90.7-20.6,108.6l-20.6,16.1l-18,76.9l-12.6,13.9l-5.4,28.8l5.3,5.5
				c-5.3,11.9-16.4,38.3-16.1,50.5c0.1,3.4,1.3,8.4,6.5,13c9.3,8.2,27.6,11.2,41.5,11.2c2.8,0,5.5-0.1,7.8-0.4
				c19.3-2,28.3-12.7,29.3-13.9l2.1-2.6l-0.5-3.3c-0.1-0.8-2.8-18-10.5-34.1h0.1l15-29l-4.7-13.2l19.5-58.7
				c23.5-9.5,84.8-35.3,94-48c2.3-3.2,5.9-9.8,10.1-18c1.9-0.4,4.1-0.8,6.5-1.3l-7.8,33.9l-10.7,13.2v32.6l17.7,11.5l44.3,54.2v18.6
				l17.1,14.3l4.4-0.6c5,7.9,8.8,23.8,10.3,33.1l1,6.6l6.7,0c2.3,0,57.6-0.1,81.6-1.8l14-1l-8.3-11.3c-2.6-3.6-24.8-33.3-43.6-45.2
				c0-8.1-1.3-13.7-3.8-16.8c-1-1.2-3.6-4.3-25-13.2l-20.1-38.5c18.2,14.6,36,27.3,42,31.4c0.2,0.2,0.5,0.4,0.6,0.5
				c7.2,5.3,17.8,3.3,22.9,1.8l48.8,3c4.8,3.6,10.6,6.8,17.3,8.8c4.1,1.2,8.4,1.8,12.9,1.8c21.1,0,44.5-11.9,49.7-17.8
				c6.1-6.9,10.5-28.3,9.9-41c-0.5-9.9-9.5-26.7-15.6-37c12-0.1,38.3-1.7,61.5-20.5c0.1,6.3-0.2,13.9-1.4,21.6
				c-3.8,23.8,4.9,36.5,14.8,45.4l7.3,75.8l-7.2,17.1l7.5,25.3l4,31l4.8,1.4c5.3,1.6,13.8,21.7,17.8,42.2l0.5,2.6l2,1.7
				c0.8,0.7,18.4,15.4,54.6,15.4c5.2,0,10.7-0.3,16.7-1c34.6-4,53.5-21.7,54.3-22.4l3.2-3L1060.6,1168.3z M990.3,1084.8
				c-3.7-0.7-8.4-1.2-14.1-1.1c-0.9-6.6-3.4-18.1-9.5-24.8c-8.9-9.7-19.6-16.5-19.6-16.5c0.2,0.1,24.3,7.6,35.2,21
				C987.8,1070.1,989.7,1078.4,990.3,1084.8z M957.1,1040.8l-3.5-57.6c1-0.6,2-1.1,2.9-1.7l8.1,59
				C962,1040.4,959.4,1040.6,957.1,1040.8z M954.3,884.5c-2.9,23.5,0,31.7,4.1,39.9c1.1,2.2,2,4,2.5,6.5l0.3,1.5
				c4.5,20-2.8,37.3-7.9,46.4c-7.5,9.3-12.4,14.5-12.4,14.5s17.8-41.8,13.5-58.7c-4.3-16.9-22.3-34.7-22.3-34.7l13.8,5.6l3.1-24.8
				l11.8-44.9c3.6-4.1,7.1-8.1,10.5-12C963.9,846.5,955.7,873.1,954.3,884.5z M797.1,453.6c-6.9-2.4-16.6-5.5-26.9-5.7
				c6.7-2.3,13.7-6.4,20.3-13.5c0,0-27,13.1-51.3,2.3c-5.7-2.5-10.6-6.4-14.3-9.9l3.5,0.2l1.3-1.1c3.6,0.9,13,3.1,22.3,3.1
				c4.4,0,8.8-0.5,12.5-1.9c11.1-4.1,14.7-22.1,16.5-33.6l0.9,0.1c2,3.7,4.5,9,4.3,11.7c-0.4,4.3,8.5,7.5,8.7,10.3
				c0.2,2.8-3.1,13.4-3.1,13.4s5.6-5.8,8.2-10.5c2.6-4.8,2.4-13.4,2.4-13.4s3.4,9.5,3.2,13.4c-0.2,3.8-1.1,7-1.1,7s3.9-8.5,4.9-16.1
				c1.1-7.5,1.3-9.9,1.3-9.9s3,12.9,2.5,17.4c-0.5,4.5-0.5,4.5-0.5,4.5s3.5-11.5,5.3-17.6c3.2,3,7.7,5.1,13.7,6.2v9L797.1,453.6z
				 M739.8,417.6l30.3-25.4l1.9,0.2c-3.3,11.9-10,24.9-12.9,26C754.7,420.1,746.6,419.1,739.8,417.6z M745.1,535.8l54.9,82.3
				l59.4,64.9l-28.1-14.3l-17.4-22.3c0,0,31.6,62.4,30.5,96.3c-7.1-31.5-91.8-170.3-112.3-203.3
				C736.3,538.1,740.7,536.9,745.1,535.8z M816.3,919.1c9-2.2,40.9-10.8,58.5-26.9c20.6-18.9,73.9-109.3,74.2-109.8
				c-14.1,28.6-46.6,90.5-59.8,106.9c-28.9,35.7-65.4,35.5-72.5,35.1L816.3,919.1z M990.4,777.9c-5.1,6-35,41-62.2,71
				c0.9-2.1,1.8-4.1,2.6-6.2c17.4-22.6,43.7-56.7,50.1-64.8c9.7-12.4,21.7-64,21.7-64l-2.7-10.4c1.2-4,2.2-8.2,3-12.7
				c2.2-12.9,3.8-28,3.9-44.8c1.4,2.4,2.8,5,4.3,7.9C1025.6,681.9,1001.5,751.9,990.4,777.9z M964.5,534
				c30.5,60.5,29.4,116.9,23.2,153.6c-6.8,40-21.1,66-21.2,66.3c0,0,12.6-66.3,9.7-108.2c-2.9-41.8-10.3-79.1-10.3-79.1l-2.9,86.5
				c0,0-4.9-76.8-11.9-85.9c-7-9.2-38.5-55-38.5-55s13.8,94.5,12.6,130.6c-1.1,36.1-15.5,76.6-15.5,76.6l0,0
				c18.4-85.8-17.5-240-18.4-244.6c0,0,3.6,25.7,6.6,61.7l-10.2-40.1l-4.1-18l-35.2-43.5l-1.2-13.1v-10.7c0.4,0,0.7,0,1.1,0
				c4.1-0.1,8.9-1.1,14.1-2.6C877.8,424.4,945,495.2,964.5,534z M847.9,395.6c-4.6,0.1-8.1-0.1-10.8-0.4c3.4-3.1,5.4-8.1,5.4-8.1
				l41.1-11.8l-71.6,11.8c-1.9,2.7-1.5,5.6-0.3,8c-3.8-0.9-8-2-10.9-3.3l9.8-19c3.1,0.8,6.3,1,9.1,1c2.9,0,5.3-0.3,6.9-0.5l87.6-7.1
				C891.4,380,862.4,395.2,847.9,395.6z M730.7,226.5c13.8,10.5,34.8,22.3,55.3,27.2c9.7,2.3,82.8,18.6,118.5,30.7
				c4.4,1.5,7.9,7.6,8.4,14.9c0.3,4.6,0.1,20.2-17.5,29.2c-27.2,14-65.2,27.7-70.6,29.6l-4.4,0.4l0,0.2c-0.4,0-0.9,0.1-1.4,0.1
				l68.7-36.7l-73.1,30.7l14.8-8.4l-27.9,9.8l-3.1-1.3c0.9-6.5,5.3-17.7,10.5-25.2l43.3-16.9c6.7,1.7,12.9,3.2,16.5,4.4
				c-3.1,2.5-26.6,17.3-30.9,19.8c0,0,44.7-14.9,44.9-21.7c0.1-3.7-1.7-7-4.9-9.1c-3.4-2.2-12.7-5-40.6-13.2
				c-32.4-9.5-81.3-23.8-92.3-31.8C736.9,253.1,732.7,238.9,730.7,226.5z M592.6,329.2c-7.3-7-11.9-20.3-14.8-33.1
				c9.6,11.6,21.7,23.7,32.8,28.4c17.2,7.2,56.2,14.5,71.6,17.3c-1.3,2.8-2.6,5.7-3.8,8.5l-5.7,0.7l-51.4-10.7l48,15.5l-1.6,3.1
				C647.5,353.9,605.9,342,592.6,329.2z M679.9,544l-49.2-3.6l-1.7-10.9l48.5,2.3l29.4-12.1l8.6-19c6.4-2.7,19-9,40.1-5.6
				c0,0-10-13.9-49.4-7.2l-2.5,1.2l-8.5,18.6l-20.6,8.5l-56.7-2.7l-8.1-11.5l3.7-5.5l3.7,5.8l43.3,2.1l-36.4-6.9l-7.5-7.5l-3.5-29.5
				l9.9-7.9l14-1.4c6.6,1.8,14.2,1,14.2,1c-4.7-1.6-8-3-10.5-4.3l41.6-56l-13.3,3.7l-0.4-5.1l14.3-27.6c4.3-1.7,18.2-2,20.5-1
				c0,0-5.1-3.6-10.4-6.9c3.6-8.1,7.7-16.5,10.1-20.3c2,0.4,5.1,1.4,7.7,2.1c2.9,0.9,19.9,1.9,23.5,2.8l-12,9.8
				c5.1-0.9,50.5-8.7,60.6-12.6c1.6-0.6,3.2-1.3,5-2c-2.2,3.7-3.9,7.7-4.6,11.7l-9.6-4l-41.2,16.4l38.7-3.6l25.6,9.8l-7.1,13.8
				l-25.1-3.1L724,413.8l-9,0.5l-7-5.1l5.6-20.6l-16.1,25.7l6.5,7.9L682,446l-21,1.7l-17.2,16.1l-6.4,7.7l25.1-14.1l24.7-1.8
				l15.2,10.7l-3.9,14.4l16.4-19.8l-19.3-11.6l10.9-12.2l-2.3,5.2l4.9-3.8l-2.5,8.8l9-4.6c0,0-4.7,10.2-6.1,12.3
				c2.3-1.4,14.8-6.4,24-9c1,0.4,2.1,0.7,3.1,1c3.8,1.1,10.1,2.9,17.7,3.1c0,0,0,0-0.1,0c-10.4,3.7-18.6,11.6-23.6,17.6l-8.9,7.4
				c0,0,1.5-0.3,3.8-0.5c-0.2,0.3-0.3,0.5-0.3,0.5c0,0,0.2-0.2,0.6-0.5c3.4-0.3,8.4-0.4,13.6,0.5c9,1.5,39.3,25.2,39.3,25.2
				s-5.2-7.2-8.6-10.8c0,0,5.3-9.8,10.6-11c5.3-1.1,12.4,3.2,19.1,2.7c6.8-0.5,16.9-10.8,16.9-10.8l9.1-23.8l7.3-7.3l3.8,41L805,513
				c-26.8-3.7-71.7,11.4-96,20.6l5.8-9L679.9,544z M399.7,703.6c-7.3-18.6-2.7-40,14.1-50.1c16.8-10.1,25-19.5,29-26l0,0
				c0,0,0,0,0,0c3.4-5.5,3.7-9,3.7-9c-0.8,2.1-2.9,5-5.6,8c-9.7-5.2-12.6-8.2-11.3-16.8c0.4-2.5,2-9,1.3-15.1
				c2.1,3.3,3.4,8.1,3.3,12.6c-0.1,5.7,4.3,10,4.3,10c-1.9-9,2.3-12.5,1.7-15.6c-0.6-3.1-5.7-10.5-5.7-10.5
				c4.3,2.5,12.6,11.2,12.6,11.2c-3.4-10.1-12.5-17.7-12.5-17.7c5.1,1.9,12.7,9.6,12.7,9.6s-5.2-9.5-11.5-12.7
				c-4.8-2.4-11.5-0.5-14.3,0.5c-0.3-0.1-0.5-0.2-0.8-0.2c6.7-6.1,16.4-11.9,27.4-8.4c10.2,3.3,19.4,9.8,22.1,18
				c1.8,5.3,1,13.9-1.5,20.4l-3.1-9.2c1.9,9.8-9.4,32-25.2,44.1c-18.6,14.1-25.5,22.1-25.7,39.4c-0.3,25.7,35,42.8,49.5,49.4
				c-2.1,2-4.1,4.2-6.1,6.4c-12-6.2-38.8-20.9-45.7-31.6c-11.5-17.9-11.3-36.3-11.3-36.3s-5.6,17.4,8.4,38.9
				c3.4,5.2,14,22,40.5,39.3c-0.6,0.9-1.2,1.8-1.9,2.7C426.6,742.6,405.4,718,399.7,703.6z M392.6,1105.6c-2.8,0.3-5.9,0.4-9.1,0.2
				c-1.4-9.6-4.2-26.4-4.2-26.4l-2.4,25.9c-9-1-17.8-3.4-21.8-6.8c-0.4-0.3-1.2-1.1-1.2-1.8c-0.2-6.5,6.4-24.4,12.7-39.1l7.5,4.6
				c0.2,3,0.7,6.3,1.5,7.4c1.6,2,11.9,6.9,14.8,12c2.9,5.2,6,20.6,6,20.6s5.7-0.7,7.6-2.1c1.2-1-0.3-14.2-2.2-24
				c4,9.1,6.3,18.4,7.4,23.5C406.3,1101.6,400.9,1104.7,392.6,1105.6z M558.9,878.7c33.6-14.1,72.4-4.5,72.4-4.5l-5.2-15.5l10.7,17
				c7.3,2.1,44.7,27.9,44.7,27.9s25.1,7.5,36.4,10.5l1.2,3.1c-13.6-2.1-31.5-7.6-39.4-10.4c-21.6-15.1-47.4-26.4-48.5-26.9l-0.7-0.3
				l-0.7-0.2c-22.8-5.3-56,0.3-73.1,3.9C557.4,881.9,558.2,880.3,558.9,878.7z M723.1,945.7c-3.8-5.4-10.4-11.1-20.1-12.9
				c-2.1-1-4.4-2.7-6.8-4.7c8.2,2.2,17.4,4.3,25.3,5.1l1.8,12.4H723.1z M681.5,935.8c-9.8-2.4-16.5-6-20.8-9.3c3-0.8,6.4-1.6,10.2-2
				C673.4,927.3,677.2,931.6,681.5,935.8C681.5,935.8,681.5,935.8,681.5,935.8z M632.1,905.5l9.4-0.6L613.6,943
				c-0.1,0.2-0.3,0.4-0.4,0.6L632.1,905.5z M655.7,911.8l1-1.3c0.4,0.2,0.8,0.5,1.2,0.7C657.1,911.4,656.4,911.6,655.7,911.8z
				 M621.7,958.6c3.7-6,11.4-16.4,23.7-25.1c4.6,4.7,12.8,11,25.6,15.3c-6.8,13-11,31.1-11,40.7
				C648.1,980.3,633.6,968.8,621.7,958.6z M552,970.3v-18.9l9.5-11.7l6.6-28.6l-1.3,26.6l14.3-7.4l-17.8,18l-1.7,18.6l5.2,7.8
				l12.6,7.4l-16.9-4.6L552,970.3z M703.7,1099.7c-20.1,0.7-47.1,1-59.3,1c-1.4-6.8-4-17.5-8.1-26.4l2.8-0.4
				c0.8,1.5,1.6,2.9,2.3,3.2c1.4,0.7,14.9,0.4,20.9,2.8c6,2.4,12.4,12.9,19.5,15.2c7,2.3,14.8,2.7,14.8,2.7s-5.4-10-11.3-18.4
				C691.7,1085.7,698.3,1093.2,703.7,1099.7z M644.3,1040.1c8.1,3.3,18,7.8,21.3,9.9c0.2,1,0.4,2.7,0.5,4.6l-45.8,6.3l-6.3-5.3
				v-16.9L570,985l4.8-1.5l41,52.1h7.4l-5.3,5.2l1.3,13.4l6,2l34.8-4.6l-30.5-16.1h5.3l-26.2-49.5l-12.9-4.1l1.2-0.6l15,0.4
				l29.8,57.1L644.3,1040.1z M815.2,1007.6c-3.5,3.3-29.3,16.7-46.4,11.5c-14-4.3-23-16.1-25.9-20.5l0.7-16.5l-16.4,20.4l1.1,1.9
				c0.1,0.2,1.1,2,2.9,4.5l-30.8-2.4l-2.4-0.7l-2.4,0.8c-4.4,1.6-9.7,1.9-11,1.1c-2-1.8-8.6-9.9-9-17.7c-0.5-9.4,7.6-39.2,13.6-41
				c12.1-3.7,18.2,1.4,20.8,4.9c-3.6,9.2-8.2,22.7-8.2,22.7c2.4-2,11.6-14.8,13-15.5h12.4l7.4,13.5l-0.1-13.5h0.1v-15.5h-0.1
				l-0.1-32.1l-26.1-68.3c6.8-21.9,42.4-47.1,42.4-47.1c-28.5,0-54.7,37.4-57.5,41.7l-2.3,3.3l12.1,31.7l-7.7-5.9
				c-3-3.4-21-24.6-28.1-48.1c-6.3-20.8,1.6-122.3,1.6-122.3c-2.6,10-25.1,98.1-16.4,126.9c1.4,4.7,3.2,9.3,5.2,13.7l0,0l-23.6,5.6
				l21.5,33.7c-19.3-17.6-42.8-52.6-42.8-52.6l8.8,19.8l-48.7,3.1c4.3-9.5,7.4-16.7,8.4-18.9c0,0-48.1,69.7-55.2,79.4
				c-5,6.7-50.9,28.1-90.6,44.1l-3.3,1.3l-23.4,70.5l4.2,11.9l-7.6,14.7h-3.4l5.1-15.9l-3.9-19l19.8-59.3l-9-2.1l11.8-2.9
				c0,0,76.7-36.6,87.9-42.8c11.2-6.2,48.1-65.1,48.1-65.1c-46.4,37.4-55.9,30.9-68.8,33c-12.9,2.1-20.6,32.1-20.6,32.1l-59.7,38.8
				h-11.6l7.7,6.8l-19.8,62l-6.9,4l2.2,4.3l-8.6,13.6l1.1,6.7l-4-2.4l-6.8-7.1l3.2-16.7l12.3-13.6l17.7-75.5l21.2-16.5l0.5-3.1
				c3.8-25.4,14.8-94.4,20.2-108.4c11-28.5,25.2-49.7,42-62.9c14.9-11.7,46.7-29.5,67.3-40.6c-11.6,27.5-21.9,62.3-21.9,62.3
				c10.2-21.3,37.5-69.4,49.5-81.3c11.5-11.5,52.5-45.5,77.9-62c-7.8,21.2-13.4,47.7-14.7,80.7c0,0,18.3-69,32.6-91.9
				c20.2-32.3,39.8-46.2,49.8-51.8c21.3,34.8,77.1,126.7,98.1,171.4c-0.3-0.4-20.7-28.3-30.9-39.2c0,0,6,17.2,6.7,24.1
				c0.7,6.9-13.3,20.3-13.3,20.3c-28.7-29.9-68.7-66.2-68.7-66.2c0.7,0.8,65.8,80.1,81.4,104.7c11.8,18.6,18.5,70.1,20.4,91.4
				L803.7,884l-3.7-6.6l12.7-21.4c0,0-1.9-8.4-11-23.6c-9-15.3-28.8-25.8-28.8-25.8c15.7,21.1,21.3,43.9,21.3,43.9l-14.5-8.7
				l-3.6,28.3c-15.5,2.1-25.5,15.3-25.5,15.3c8.8-5.4,14.8-4,14.8-4c1.8,6,7.7,61.9,7.7,61.9l11.6,4.2c0,0,5.8,9,4.5,15.3
				c-1.3,6.4-10.5,7.1-9.5,19.3c1,12.3,2.9,7.5,2.5,16.1c-0.4,8.6-18.9,12.9-18.9,12.9s22.8,3,34,0c11.2-3,19.3-18.9,16.7-32.2
				c-2.6-13.3-17.1-33.2-17.1-33.2l-4-52.3l6.4,3.4l3.1,42l1.1,1.7c7.3,11.3,17.6,30.3,18,37.2
				C821.8,988.5,817.5,1004.5,815.2,1007.6z M896.6,943.4c2.3-14.1,1.7-27.3,1-35.4c2.4,7.4,4.5,19.1,4.5,24.2
				c0,7.2,2.6,24.1,9.5,32.7c6.9,8.6,13.8,13.8,12,16.9c-1.7,3.2-9.7,1.7-9.7,1.7l13.8,8c0,0,2.6,24.9,2.6,33.8
				c0,8.9-6.3,30.4-6.3,30.4l7.7-6.9l-12,30.4l3.6,13c-2.4,0.5-4.6,1-6.4,1.4l-4-13.6l6.6-15.6l-8.2-85.9l-2.4-2
				C898.8,968.6,893.8,960.6,896.6,943.4z M1017.5,1179.7c-7.1-10.5-21.6-29.7-34.9-41.2l17.1,44.4c-31.3,3-49.2-6.2-54.8-9.7
				c-2.7-12.4-9.8-39.5-23-48.6l-2-15.7c2.9-0.7,6.6-1.5,10.7-2.4c8.5,1.2,30.1,4.6,38.1,9.4c10.1,6,28.7,25.8,37.3,28.5
				c8.6,2.7,20.9,28,20.9,28l9.9-5.4c0,0-10.7-26.1-22.1-44.4c11.6,12.6,24.6,29.1,29.6,44.5
				C1039.7,1170.5,1030.7,1176,1017.5,1179.7z"/>
			<path d="M678.8,473.8c-5.9,2.5-16.4,15.8-16.4,15.8l9.2-6.4c0,0,4.2,2,9.1-0.3c4.9-2.4,3.3-7.6,3.3-7.6c1.2-1,6.1,0,6.1,0
				S684.7,471.3,678.8,473.8z"/>
			<path d="M709.1,455.5c0,0.1,0.2,0,0.4-0.3C709.3,455.3,709.1,455.4,709.1,455.5z"/>
			<path d="M755.4,506.1l13.4,3.7l-11.7-9.4c0,0-24.7,0.3-31.8,4.1l-6,10.9c0,0,6.7-6.6,8.2-7.5C729,507,755.4,506.1,755.4,506.1z"
				/>
			<path d="M891.4,319c0,0,12.6-5.2,14-11.8c1.4-6.6-1.7-11.5-12.2-14.9c-10.5-3.4-52.3-13.2-52.3-13.2l46.8,16.7l-123.5-33.9
				c0,0,115.2,37.5,124.9,42.1C898.9,308.6,891.4,319,891.4,319z"/>
		</g>
	</g>
</g>
<g id="text">
</g>
</svg>
